# MagicaVoxel @ Ephtracy

# group
o 

# material
mtllib hand.mtl
usemtl palette

# normals
vn -1 0 0
vn 1 0 0
vn 0 0 1
vn 0 0 -1
vn 0 -1 0
vn 0 1 0

# texcoords
vt 0.0175781 0.5
vt 0.0214844 0.5
vt 0.271484 0.5
vt 0.306641 0.5
vt 0.330078 0.5
vt 0.333984 0.5
vt 0.361328 0.5
vt 0.396484 0.5
vt 0.466797 0.5
vt 0.517578 0.5
vt 0.521484 0.5
vt 0.580078 0.5
vt 0.583984 0.5
vt 0.771484 0.5

# verts
v -0.2 0 0.6
v -0.2 0 0.5
v -0.2 0 0.2
v -0.2 0 0.1
v -0.2 0 -0.2
v -0.2 0 -0.5
v -0.2 0 -0.6
v -0.2 0.1 0.5
v -0.2 0.1 0.4
v -0.2 0.1 0.2
v -0.2 0.1 -0.1
v -0.2 0.1 -0.2
v -0.2 0.1 -0.5
v -0.2 0.1 -0.6
v -0.2 0.2 0.5
v -0.2 0.2 0.4
v -0.2 0.2 0.2
v -0.2 0.2 0.1
v -0.2 0.2 -0.1
v -0.2 0.3 0.4
v -0.2 0.3 0.2
v -0.2 0.3 0.1
v -0.2 0.3 5.96046e-008
v -0.2 0.3 -0.2
v -0.2 0.3 -0.3
v -0.2 0.4 0.6
v -0.2 0.4 0.5
v -0.2 0.4 0.2
v -0.2 0.4 0.1
v -0.2 0.4 5.96046e-008
v -0.2 0.4 -0.2
v -0.2 0.4 -0.3
v -0.2 0.4 -0.6
v 0.1 0.1 0.5
v 0.1 0.1 0.3
v 0.1 0.1 0.1
v 0.1 0.1 5.96046e-008
v 0.1 0.1 -0.2
v 0.1 0.1 -0.3
v 0.1 0.1 -0.5
v 0.1 0.2 0.2
v 0.1 0.2 0.1
v 0.1 0.2 -0.1
v 0.1 0.3 0.5
v 0.1 0.3 0.4
v 0.1 0.3 0.3
v 0.1 0.3 0.2
v 0.1 0.3 -0.1
v 0.1 0.3 -0.2
v 0.1 0.3 -0.3
v 0.1 0.3 -0.5
v -0.1 0.1 0.5
v -0.1 0.1 0.4
v -0.1 0.1 0.3
v -0.1 0.1 0.2
v -0.1 0.1 0.1
v -0.1 0.1 5.96046e-008
v -0.1 0.1 -0.1
v -0.1 0.1 -0.2
v -0.1 0.1 -0.5
v -0.1 0.2 0.5
v -0.1 0.2 0.4
v -0.1 0.2 0.2
v -0.1 0.2 0.1
v -0.1 0.2 -0.1
v -0.1 0.3 0.5
v -0.1 0.3 0.4
v -0.1 0.3 0.2
v -0.1 0.3 -0.1
v -0.1 0.3 -0.2
v -0.1 0.3 -0.5
v 0.2 0 0.6
v 0.2 0 0.5
v 0.2 0 0.3
v 0.2 0 5.96046e-008
v 0.2 0 -0.2
v 0.2 0 -0.5
v 0.2 0 -0.6
v 0.2 0.1 0.3
v 0.2 0.1 0.1
v 0.2 0.1 5.96046e-008
v 0.2 0.1 -0.2
v 0.2 0.1 -0.3
v 0.2 0.2 0.2
v 0.2 0.2 0.1
v 0.2 0.2 -0.1
v 0.2 0.2 -0.5
v 0.2 0.2 -0.6
v 0.2 0.3 0.5
v 0.2 0.3 0.4
v 0.2 0.3 0.3
v 0.2 0.3 0.2
v 0.2 0.3 0.1
v 0.2 0.3 -0.1
v 0.2 0.3 -0.2
v 0.2 0.3 -0.3
v 0.2 0.4 0.6
v 0.2 0.4 0.5
v 0.2 0.4 0.4
v 0.2 0.4 0.1
v 0.2 0.4 -0.2
v 0.2 0.4 -0.3
v 0.2 0.4 -0.6
v -0.2 0 0.6
v -0.2 0.4 0.6
v 0.2 0 0.6
v 0.2 0.4 0.6
v -0.1 0.1 -0.5
v -0.1 0.3 -0.5
v 0.1 0.1 -0.5
v 0.1 0.3 -0.5
v -0.1 0.1 0.5
v -0.1 0.2 0.5
v -0.1 0.3 0.5
v 0 0.1 0.5
v 0 0.3 0.5
v 0.1 0.1 0.5
v 0.1 0.3 0.5
v -0.2 0 -0.6
v -0.2 0.1 -0.6
v -0.2 0.4 -0.6
v -0.1 0 -0.6
v -0.1 0.1 -0.6
v 0.1 0 -0.6
v 0.1 0.2 -0.6
v 0.2 0 -0.6
v 0.2 0.2 -0.6
v 0.2 0.4 -0.6
v -0.2 0 0.6
v 0.2 0 0.6
v -0.2 0 0.5
v -0.1 0 0.5
v 0 0 0.5
v 0.1 0 0.5
v 0.2 0 0.5
v -0.1 0 0.3
v 0 0 0.3
v 0.1 0 0.3
v 0.2 0 0.3
v -0.2 0 0.2
v -0.1 0 0.2
v -0.2 0 0.1
v -0.1 0 0.1
v 0.1 0 0.1
v -0.1 0 5.96046e-008
v 0.1 0 5.96046e-008
v 0.2 0 5.96046e-008
v -0.2 0 -0.2
v -0.1 0 -0.2
v 0.1 0 -0.2
v 0.2 0 -0.2
v -0.2 0 -0.5
v -0.1 0 -0.5
v 0.1 0 -0.5
v 0.2 0 -0.5
v -0.2 0 -0.6
v -0.1 0 -0.6
v 0.1 0 -0.6
v 0.2 0 -0.6
v -0.1 0.3 0.5
v 0 0.3 0.5
v 0.1 0.3 0.5
v -0.1 0.3 0.4
v 0 0.3 0.4
v 0.1 0.3 0.4
v 0.1 0.3 0.3
v -0.1 0.3 0.2
v 0 0.3 0.2
v 0.1 0.3 0.2
v -0.1 0.3 -0.1
v 0 0.3 -0.1
v 0.1 0.3 -0.1
v -0.1 0.3 -0.2
v 0.1 0.3 -0.2
v 0.1 0.3 -0.3
v -0.1 0.3 -0.5
v 0.1 0.3 -0.5
v -0.1 0.1 0.5
v 0 0.1 0.5
v 0.1 0.1 0.5
v -0.1 0.1 0.4
v -0.1 0.1 0.3
v 0 0.1 0.3
v 0.1 0.1 0.3
v -0.1 0.1 0.2
v -0.1 0.1 0.1
v 0.1 0.1 0.1
v -0.1 0.1 5.96046e-008
v 0.1 0.1 5.96046e-008
v -0.1 0.1 -0.1
v -0.1 0.1 -0.2
v 0.1 0.1 -0.2
v 0.1 0.1 -0.3
v -0.1 0.1 -0.5
v 0.1 0.1 -0.5
v -0.2 0.4 0.6
v 0.2 0.4 0.6
v -0.2 0.4 0.5
v -0.1 0.4 0.5
v 0 0.4 0.5
v 0.2 0.4 0.5
v 0 0.4 0.4
v 0.1 0.4 0.4
v 0.2 0.4 0.4
v -0.2 0.4 0.2
v -0.1 0.4 0.2
v 0 0.4 0.2
v -0.2 0.4 0.1
v -0.1 0.4 0.1
v 0.1 0.4 0.1
v 0.2 0.4 0.1
v -0.2 0.4 5.96046e-008
v -0.1 0.4 5.96046e-008
v -0.1 0.4 -0.1
v 0 0.4 -0.1
v -0.2 0.4 -0.2
v -0.1 0.4 -0.2
v 0.1 0.4 -0.2
v 0.2 0.4 -0.2
v -0.2 0.4 -0.3
v -0.1 0.4 -0.3
v 0.1 0.4 -0.3
v 0.2 0.4 -0.3
v -0.2 0.4 -0.6
v 0.2 0.4 -0.6

# faces
f 8/3/1 2/3/1 1/3/1
f 8/8/1 3/8/1 2/8/1
f 9/8/1 3/8/1 8/8/1
f 10/5/1 4/5/1 3/5/1
f 10/8/1 3/8/1 9/8/1
f 11/4/1 5/4/1 4/4/1
f 12/14/1 6/14/1 5/14/1
f 12/4/1 5/4/1 11/4/1
f 13/12/1 7/12/1 6/12/1
f 13/14/1 6/14/1 12/14/1
f 14/12/1 7/12/1 13/12/1
f 15/4/1 9/4/1 8/4/1
f 15/3/1 8/3/1 1/3/1
f 16/9/1 10/9/1 9/9/1
f 16/4/1 9/4/1 15/4/1
f 17/5/1 4/5/1 10/5/1
f 17/9/1 10/9/1 16/9/1
f 18/4/1 11/4/1 4/4/1
f 18/5/1 4/5/1 17/5/1
f 19/5/1 12/5/1 11/5/1
f 19/4/1 11/4/1 18/4/1
f 20/7/1 17/7/1 16/7/1
f 20/5/1 16/5/1 15/5/1
f 21/5/1 18/5/1 17/5/1
f 21/7/1 17/7/1 20/7/1
f 21/5/1 19/5/1 18/5/1
f 22/5/1 19/5/1 21/5/1
f 23/5/1 19/5/1 22/5/1
f 24/5/1 12/5/1 19/5/1
f 24/5/1 19/5/1 23/5/1
f 24/14/1 13/14/1 12/14/1
f 24/14/1 14/14/1 13/14/1
f 25/14/1 14/14/1 24/14/1
f 26/3/1 15/3/1 1/3/1
f 27/5/1 20/5/1 15/5/1
f 27/3/1 15/3/1 26/3/1
f 27/5/1 21/5/1 20/5/1
f 28/6/1 22/6/1 21/6/1
f 28/5/1 21/5/1 27/5/1
f 29/8/1 23/8/1 22/8/1
f 29/6/1 22/6/1 28/6/1
f 30/5/1 24/5/1 23/5/1
f 30/8/1 23/8/1 29/8/1
f 31/11/1 25/11/1 24/11/1
f 31/5/1 24/5/1 30/5/1
f 32/14/1 14/14/1 25/14/1
f 32/11/1 25/11/1 31/11/1
f 33/14/1 14/14/1 32/14/1
f 41/8/1 36/8/1 35/8/1
f 42/9/1 37/9/1 36/9/1
f 42/8/1 36/8/1 41/8/1
f 42/9/1 38/9/1 37/9/1
f 43/9/1 38/9/1 42/9/1
f 44/9/1 35/9/1 34/9/1
f 45/9/1 35/9/1 44/9/1
f 46/8/1 41/8/1 35/8/1
f 46/9/1 35/9/1 45/9/1
f 47/1/1 42/1/1 41/1/1
f 47/8/1 41/8/1 46/8/1
f 47/1/1 43/1/1 42/1/1
f 48/9/1 38/9/1 43/9/1
f 48/1/1 43/1/1 47/1/1
f 49/13/1 39/13/1 38/13/1
f 49/9/1 38/9/1 48/9/1
f 50/14/1 40/14/1 39/14/1
f 50/13/1 39/13/1 49/13/1
f 51/14/1 40/14/1 50/14/1
f 52/4/2 53/4/2 61/4/2
f 53/9/2 54/9/2 62/9/2
f 61/4/2 53/4/2 62/4/2
f 54/9/2 55/9/2 62/9/2
f 55/5/2 56/5/2 63/5/2
f 62/9/2 55/9/2 63/9/2
f 56/4/2 57/4/2 64/4/2
f 63/5/2 56/5/2 64/5/2
f 57/4/2 58/4/2 64/4/2
f 58/5/2 59/5/2 65/5/2
f 64/4/2 58/4/2 65/4/2
f 61/5/2 62/5/2 66/5/2
f 62/7/2 63/7/2 67/7/2
f 66/5/2 62/5/2 67/5/2
f 63/5/2 64/5/2 68/5/2
f 67/7/2 63/7/2 68/7/2
f 64/5/2 65/5/2 68/5/2
f 65/5/2 59/5/2 69/5/2
f 68/5/2 65/5/2 69/5/2
f 59/14/2 60/14/2 70/14/2
f 69/5/2 59/5/2 70/5/2
f 70/14/2 60/14/2 71/14/2
f 73/9/2 74/9/2 79/9/2
f 74/6/2 75/6/2 79/6/2
f 79/6/2 75/6/2 80/6/2
f 75/9/2 76/9/2 81/9/2
f 80/6/2 75/6/2 81/6/2
f 76/14/2 77/14/2 82/14/2
f 81/9/2 76/9/2 82/9/2
f 82/14/2 77/14/2 83/14/2
f 79/8/2 80/8/2 84/8/2
f 80/9/2 81/9/2 85/9/2
f 84/8/2 80/8/2 85/8/2
f 81/9/2 82/9/2 85/9/2
f 85/9/2 82/9/2 86/9/2
f 77/12/2 78/12/2 87/12/2
f 83/14/2 77/14/2 87/14/2
f 87/12/2 78/12/2 88/12/2
f 72/3/2 73/3/2 89/3/2
f 73/9/2 79/9/2 89/9/2
f 89/9/2 79/9/2 90/9/2
f 79/8/2 84/8/2 91/8/2
f 90/9/2 79/9/2 91/9/2
f 85/1/2 86/1/2 92/1/2
f 91/8/2 84/8/2 92/8/2
f 84/1/2 85/1/2 92/1/2
f 92/1/2 86/1/2 93/1/2
f 86/9/2 82/9/2 94/9/2
f 93/1/2 86/1/2 94/1/2
f 82/13/2 83/13/2 95/13/2
f 94/9/2 82/9/2 95/9/2
f 87/14/2 88/14/2 96/14/2
f 95/13/2 83/13/2 96/13/2
f 83/14/2 87/14/2 96/14/2
f 72/3/2 89/3/2 97/3/2
f 89/1/2 90/1/2 98/1/2
f 97/3/2 89/3/2 98/3/2
f 92/9/2 93/9/2 99/9/2
f 98/1/2 90/1/2 99/1/2
f 90/9/2 91/9/2 99/9/2
f 91/9/2 92/9/2 99/9/2
f 94/1/2 95/1/2 100/1/2
f 99/9/2 93/9/2 100/9/2
f 93/1/2 94/1/2 100/1/2
f 95/10/2 96/10/2 101/10/2
f 100/1/2 95/1/2 101/1/2
f 96/14/2 88/14/2 102/14/2
f 101/10/2 96/10/2 102/10/2
f 102/14/2 88/14/2 103/14/2
f 106/3/3 105/3/3 104/3/3
f 107/3/3 105/3/3 106/3/3
f 110/14/3 109/14/3 108/14/3
f 111/14/3 109/14/3 110/14/3
f 112/3/4 113/3/4 115/3/4
f 113/3/4 114/3/4 115/3/4
f 115/3/4 114/3/4 116/3/4
f 115/3/4 116/3/4 117/3/4
f 117/3/4 116/3/4 118/3/4
f 119/12/4 120/12/4 122/12/4
f 120/14/4 121/14/4 123/14/4
f 122/12/4 120/12/4 123/12/4
f 122/14/4 123/14/4 124/14/4
f 123/14/4 121/14/4 125/14/4
f 124/14/4 123/14/4 125/14/4
f 124/12/4 125/12/4 126/12/4
f 125/14/4 121/14/4 127/14/4
f 126/12/4 125/12/4 127/12/4
f 127/14/4 121/14/4 128/14/4
f 131/3/5 130/3/5 129/3/5
f 132/3/5 130/3/5 131/3/5
f 133/3/5 130/3/5 132/3/5
f 134/3/5 130/3/5 133/3/5
f 135/3/5 130/3/5 134/3/5
f 136/8/5 132/8/5 131/8/5
f 136/4/5 133/4/5 132/4/5
f 137/2/5 134/2/5 133/2/5
f 137/4/5 133/4/5 136/4/5
f 138/9/5 135/9/5 134/9/5
f 138/2/5 134/2/5 137/2/5
f 139/9/5 135/9/5 138/9/5
f 140/8/5 136/8/5 131/8/5
f 141/2/5 137/2/5 136/2/5
f 141/8/5 136/8/5 140/8/5
f 141/2/5 138/2/5 137/2/5
f 142/5/5 141/5/5 140/5/5
f 143/2/5 138/2/5 141/2/5
f 143/5/5 141/5/5 142/5/5
f 144/6/5 139/6/5 138/6/5
f 144/2/5 138/2/5 143/2/5
f 145/4/5 143/4/5 142/4/5
f 145/4/5 144/4/5 143/4/5
f 146/6/5 139/6/5 144/6/5
f 146/4/5 144/4/5 145/4/5
f 147/6/5 139/6/5 146/6/5
f 148/4/5 145/4/5 142/4/5
f 149/2/5 146/2/5 145/2/5
f 149/4/5 145/4/5 148/4/5
f 150/9/5 147/9/5 146/9/5
f 150/2/5 146/2/5 149/2/5
f 151/9/5 147/9/5 150/9/5
f 152/14/5 149/14/5 148/14/5
f 152/14/5 150/14/5 149/14/5
f 152/14/5 151/14/5 150/14/5
f 153/14/5 151/14/5 152/14/5
f 154/14/5 151/14/5 153/14/5
f 155/14/5 151/14/5 154/14/5
f 156/12/5 153/12/5 152/12/5
f 157/14/5 154/14/5 153/14/5
f 157/12/5 153/12/5 156/12/5
f 158/12/5 155/12/5 154/12/5
f 158/14/5 154/14/5 157/14/5
f 159/12/5 155/12/5 158/12/5
f 163/2/5 161/2/5 160/2/5
f 164/1/5 162/1/5 161/1/5
f 164/2/5 161/2/5 163/2/5
f 165/1/5 162/1/5 164/1/5
f 166/2/5 164/2/5 163/2/5
f 166/2/5 165/2/5 164/2/5
f 167/2/5 166/2/5 163/2/5
f 168/2/5 166/2/5 167/2/5
f 169/2/5 166/2/5 168/2/5
f 170/7/5 168/7/5 167/7/5
f 171/2/5 169/2/5 168/2/5
f 171/7/5 168/7/5 170/7/5
f 172/2/5 169/2/5 171/2/5
f 173/2/5 171/2/5 170/2/5
f 173/2/5 172/2/5 171/2/5
f 174/2/5 172/2/5 173/2/5
f 175/14/5 174/14/5 173/14/5
f 176/14/5 175/14/5 173/14/5
f 177/14/5 175/14/5 176/14/5
f 178/4/6 179/4/6 181/4/6
f 181/4/6 179/4/6 182/4/6
f 179/2/6 180/2/6 183/2/6
f 182/4/6 179/4/6 183/4/6
f 183/2/6 180/2/6 184/2/6
f 182/2/6 183/2/6 185/2/6
f 183/2/6 184/2/6 185/2/6
f 185/2/6 184/2/6 186/2/6
f 186/2/6 184/2/6 187/2/6
f 186/4/6 187/4/6 188/4/6
f 188/4/6 187/4/6 189/4/6
f 188/2/6 189/2/6 190/2/6
f 190/2/6 189/2/6 191/2/6
f 191/2/6 189/2/6 192/2/6
f 191/14/6 192/14/6 193/14/6
f 191/14/6 193/14/6 194/14/6
f 194/14/6 193/14/6 195/14/6
f 196/3/6 197/3/6 198/3/6
f 198/3/6 197/3/6 199/3/6
f 199/3/6 197/3/6 200/3/6
f 200/3/6 197/3/6 201/3/6
f 199/2/6 200/2/6 202/2/6
f 200/1/6 201/1/6 202/1/6
f 202/1/6 201/1/6 203/1/6
f 203/1/6 201/1/6 204/1/6
f 198/5/6 199/5/6 205/5/6
f 199/2/6 202/2/6 206/2/6
f 205/5/6 199/5/6 206/5/6
f 202/2/6 203/2/6 206/2/6
f 206/2/6 203/2/6 207/2/6
f 205/6/6 206/6/6 208/6/6
f 206/7/6 207/7/6 209/7/6
f 208/6/6 206/6/6 209/6/6
f 203/9/6 204/9/6 210/9/6
f 207/2/6 203/2/6 210/2/6
f 210/9/6 204/9/6 211/9/6
f 208/8/6 209/8/6 212/8/6
f 209/7/6 207/7/6 213/7/6
f 212/8/6 209/8/6 213/8/6
f 212/5/6 213/5/6 214/5/6
f 213/7/6 207/7/6 214/7/6
f 207/2/6 210/2/6 215/2/6
f 214/7/6 207/7/6 215/7/6
f 212/5/6 214/5/6 216/5/6
f 214/2/6 215/2/6 217/2/6
f 216/5/6 214/5/6 217/5/6
f 215/2/6 210/2/6 218/2/6
f 217/2/6 215/2/6 218/2/6
f 210/1/6 211/1/6 218/1/6
f 218/1/6 211/1/6 219/1/6
f 216/11/6 217/11/6 220/11/6
f 217/14/6 218/14/6 221/14/6
f 220/11/6 217/11/6 221/11/6
f 218/10/6 219/10/6 222/10/6
f 221/14/6 218/14/6 222/14/6
f 222/10/6 219/10/6 223/10/6
f 220/14/6 221/14/6 224/14/6
f 221/14/6 222/14/6 224/14/6
f 222/14/6 223/14/6 224/14/6
f 224/14/6 223/14/6 225/14/6
