# MagicaVoxel @ Ephtracy

# group
o leg

# material
mtllib leftleg.mtl
usemtl palette

# normals
vn -1 0 0
vn 1 0 0
vn 0 0 1
vn 0 0 -1
vn 0 -1 0
vn 0 1 0

# texcoords
vt 0.0175781 0.5
vt 0.142578 0.5
vt 0.185547 0.5
vt 0.396484 0.5
vt 0.767578 0.5

# verts
v -0.2 0 0.6
v -0.2 0 0.5
v -0.2 0 0.4
v -0.2 0 -0.6
v -0.2 0.1 -0.4
v -0.2 0.1 -0.5
v -0.2 0.2 0.4
v -0.2 0.2 0.3
v -0.2 0.2 0.1
v -0.2 0.2 -0.4
v -0.2 0.3 0.1
v -0.2 0.3 -0.5
v -0.2 0.4 0.6
v -0.2 0.4 0.5
v -0.2 0.4 0.3
v -0.2 0.4 -0.6
v 0.1 0.1 0.5
v 0.1 0.1 0.3
v 0.1 0.1 5.96046e-008
v 0.1 0.1 -0.2
v 0.1 0.1 -0.5
v 0.1 0.2 0.4
v 0.1 0.2 0.3
v 0.1 0.2 0.2
v 0.1 0.2 5.96046e-008
v 0.1 0.2 -0.1
v 0.1 0.2 -0.2
v 0.1 0.2 -0.5
v 0.1 0.3 0.5
v 0.1 0.3 0.4
v 0.1 0.3 0.2
v 0.1 0.3 5.96046e-008
v 0.1 0.3 -0.1
v 0.1 0.3 -0.2
v 0.1 0.3 -0.5
v -0.1 0.1 0.5
v -0.1 0.1 0.4
v -0.1 0.1 0.3
v -0.1 0.1 -0.4
v -0.1 0.1 -0.5
v -0.1 0.2 0.4
v -0.1 0.2 0.3
v -0.1 0.2 0.1
v -0.1 0.2 -0.4
v -0.1 0.3 0.5
v -0.1 0.3 0.4
v -0.1 0.3 0.3
v -0.1 0.3 0.1
v -0.1 0.3 5.96046e-008
v -0.1 0.3 -0.1
v -0.1 0.3 -0.5
v 0.2 0 0.6
v 0.2 0 0.5
v 0.2 0 0.3
v 0.2 0 -0.6
v 0.2 0.1 5.96046e-008
v 0.2 0.1 -0.2
v 0.2 0.2 0.4
v 0.2 0.2 0.3
v 0.2 0.2 0.2
v 0.2 0.2 5.96046e-008
v 0.2 0.2 -0.1
v 0.2 0.2 -0.2
v 0.2 0.2 -0.5
v 0.2 0.2 -0.6
v 0.2 0.3 0.2
v 0.2 0.3 -0.1
v 0.2 0.3 -0.2
v 0.2 0.3 -0.5
v 0.2 0.3 -0.6
v 0.2 0.4 0.6
v 0.2 0.4 0.5
v 0.2 0.4 0.4
v 0.2 0.4 -0.6
v -0.2 0 0.6
v -0.2 0.4 0.6
v 0.2 0 0.6
v 0.2 0.4 0.6
v -0.1 0.1 -0.5
v -0.1 0.3 -0.5
v 0.1 0.1 -0.5
v 0.1 0.2 -0.5
v 0.1 0.3 -0.5
v -0.1 0.1 0.5
v -0.1 0.3 0.5
v 0.1 0.1 0.5
v 0.1 0.3 0.5
v -0.2 0 -0.6
v -0.2 0.4 -0.6
v -0.1 0.3 -0.6
v -0.1 0.4 -0.6
v 0 0.3 -0.6
v 0 0.4 -0.6
v 0.1 0.2 -0.6
v 0.1 0.3 -0.6
v 0.2 0 -0.6
v 0.2 0.2 -0.6
v 0.2 0.3 -0.6
v 0.2 0.4 -0.6
v -0.2 0 0.6
v 0.2 0 0.6
v -0.2 0 0.5
v 0.2 0 0.5
v -0.2 0 0.4
v -0.1 0 0.4
v -0.1 0 0.3
v 0.2 0 0.3
v -0.2 0 -0.6
v 0.2 0 -0.6
v -0.1 0.3 0.5
v 0.1 0.3 0.5
v -0.1 0.3 0.4
v 0.1 0.3 0.4
v -0.1 0.3 0.3
v 0.1 0.3 0.2
v -0.1 0.3 0.1
v -0.1 0.3 5.96046e-008
v 0.1 0.3 5.96046e-008
v -0.1 0.3 -0.1
v 0.1 0.3 -0.1
v 0.1 0.3 -0.2
v -0.1 0.3 -0.5
v 0.1 0.3 -0.5
v -0.1 0.1 0.5
v 0.1 0.1 0.5
v -0.1 0.1 0.4
v -0.1 0.1 0.3
v 0.1 0.1 0.3
v 0.1 0.1 5.96046e-008
v 0.1 0.1 -0.2
v -0.1 0.1 -0.4
v -0.1 0.1 -0.5
v 0.1 0.1 -0.5
v -0.2 0.4 0.6
v 0.2 0.4 0.6
v -0.2 0.4 0.5
v 0.2 0.4 0.5
v -0.1 0.4 0.4
v 0.2 0.4 0.4
v -0.2 0.4 0.3
v -0.1 0.4 0.3
v -0.1 0.4 5.96046e-008
v 0.1 0.4 5.96046e-008
v -0.1 0.4 -0.1
v 0.1 0.4 -0.1
v -0.1 0.4 -0.5
v 0 0.4 -0.5
v -0.2 0.4 -0.6
v -0.1 0.4 -0.6
v 0 0.4 -0.6
v 0.2 0.4 -0.6

# faces
f 5/2/1 4/2/1 3/2/1
f 6/2/1 4/2/1 5/2/1
f 7/1/1 3/1/1 2/1/1
f 7/2/1 5/2/1 3/2/1
f 8/2/1 5/2/1 7/2/1
f 9/2/1 5/2/1 8/2/1
f 10/4/1 6/4/1 5/4/1
f 10/2/1 5/2/1 9/2/1
f 11/2/1 9/2/1 8/2/1
f 11/4/1 10/4/1 9/4/1
f 12/2/1 4/2/1 6/2/1
f 12/4/1 10/4/1 11/4/1
f 12/4/1 6/4/1 10/4/1
f 13/3/1 2/3/1 1/3/1
f 14/1/1 8/1/1 7/1/1
f 14/3/1 2/3/1 13/3/1
f 14/1/1 7/1/1 2/1/1
f 15/2/1 11/2/1 8/2/1
f 15/1/1 8/1/1 14/1/1
f 15/2/1 12/2/1 11/2/1
f 16/2/1 4/2/1 12/2/1
f 16/2/1 12/2/1 15/2/1
f 22/1/1 18/1/1 17/1/1
f 23/2/1 19/2/1 18/2/1
f 23/1/1 18/1/1 22/1/1
f 24/2/1 19/2/1 23/2/1
f 25/4/1 20/4/1 19/4/1
f 25/2/1 19/2/1 24/2/1
f 26/4/1 20/4/1 25/4/1
f 27/2/1 21/2/1 20/2/1
f 27/4/1 20/4/1 26/4/1
f 28/2/1 21/2/1 27/2/1
f 29/1/1 22/1/1 17/1/1
f 30/2/1 24/2/1 23/2/1
f 30/1/1 22/1/1 29/1/1
f 30/2/1 23/2/1 22/2/1
f 31/4/1 26/4/1 25/4/1
f 31/2/1 24/2/1 30/2/1
f 31/4/1 25/4/1 24/4/1
f 32/4/1 26/4/1 31/4/1
f 33/2/1 27/2/1 26/2/1
f 33/4/1 26/4/1 32/4/1
f 34/4/1 28/4/1 27/4/1
f 34/2/1 27/2/1 33/2/1
f 35/4/1 28/4/1 34/4/1
f 36/1/2 37/1/2 41/1/2
f 37/2/2 38/2/2 41/2/2
f 38/2/2 39/2/2 41/2/2
f 41/2/2 39/2/2 42/2/2
f 42/2/2 39/2/2 43/2/2
f 39/4/2 40/4/2 44/4/2
f 43/2/2 39/2/2 44/2/2
f 36/1/2 41/1/2 45/1/2
f 41/1/2 42/1/2 45/1/2
f 45/1/2 42/1/2 46/1/2
f 42/2/2 43/2/2 47/2/2
f 46/1/2 42/1/2 47/1/2
f 43/4/2 44/4/2 48/4/2
f 47/2/2 43/2/2 48/2/2
f 48/4/2 44/4/2 49/4/2
f 49/4/2 44/4/2 50/4/2
f 44/4/2 40/4/2 51/4/2
f 50/4/2 44/4/2 51/4/2
f 54/2/2 55/2/2 56/2/2
f 56/2/2 55/2/2 57/2/2
f 53/1/2 54/1/2 58/1/2
f 54/2/2 56/2/2 59/2/2
f 58/1/2 54/1/2 59/1/2
f 59/2/2 56/2/2 60/2/2
f 56/4/2 57/4/2 61/4/2
f 60/2/2 56/2/2 61/2/2
f 61/4/2 57/4/2 62/4/2
f 57/2/2 55/2/2 63/2/2
f 62/4/2 57/4/2 63/4/2
f 63/2/2 55/2/2 64/2/2
f 64/2/2 55/2/2 65/2/2
f 61/4/2 62/4/2 66/4/2
f 59/2/2 60/2/2 66/2/2
f 58/2/2 59/2/2 66/2/2
f 60/4/2 61/4/2 66/4/2
f 62/2/2 63/2/2 67/2/2
f 66/4/2 62/4/2 67/4/2
f 63/4/2 64/4/2 68/4/2
f 67/2/2 63/2/2 68/2/2
f 64/5/2 65/5/2 69/5/2
f 68/4/2 64/4/2 69/4/2
f 69/5/2 65/5/2 70/5/2
f 52/3/2 53/3/2 71/3/2
f 53/1/2 58/1/2 72/1/2
f 71/3/2 53/3/2 72/3/2
f 67/2/2 68/2/2 73/2/2
f 72/1/2 58/1/2 73/1/2
f 66/2/2 67/2/2 73/2/2
f 69/2/2 70/2/2 73/2/2
f 68/2/2 69/2/2 73/2/2
f 58/2/2 66/2/2 73/2/2
f 73/2/2 70/2/2 74/2/2
f 77/3/3 76/3/3 75/3/3
f 78/3/3 76/3/3 77/3/3
f 81/2/3 80/2/3 79/2/3
f 82/2/3 80/2/3 81/2/3
f 83/2/3 80/2/3 82/2/3
f 84/3/4 85/3/4 86/3/4
f 86/3/4 85/3/4 87/3/4
f 88/2/4 89/2/4 90/2/4
f 90/2/4 89/2/4 91/2/4
f 88/2/4 90/2/4 92/2/4
f 90/5/4 91/5/4 92/5/4
f 92/5/4 91/5/4 93/5/4
f 88/2/4 92/2/4 94/2/4
f 92/2/4 93/2/4 94/2/4
f 94/2/4 93/2/4 95/2/4
f 88/2/4 94/2/4 96/2/4
f 94/5/4 95/5/4 97/5/4
f 96/2/4 94/2/4 97/2/4
f 95/2/4 93/2/4 98/2/4
f 97/5/4 95/5/4 98/5/4
f 98/2/4 93/2/4 99/2/4
f 102/3/5 101/3/5 100/3/5
f 103/3/5 101/3/5 102/3/5
f 104/1/5 103/1/5 102/1/5
f 105/1/5 103/1/5 104/1/5
f 106/2/5 105/2/5 104/2/5
f 106/1/5 103/1/5 105/1/5
f 107/1/5 103/1/5 106/1/5
f 108/2/5 106/2/5 104/2/5
f 108/2/5 107/2/5 106/2/5
f 109/2/5 107/2/5 108/2/5
f 112/1/5 111/1/5 110/1/5
f 113/1/5 111/1/5 112/1/5
f 114/2/5 113/2/5 112/2/5
f 115/2/5 113/2/5 114/2/5
f 116/2/5 115/2/5 114/2/5
f 117/2/5 115/2/5 116/2/5
f 118/2/5 115/2/5 117/2/5
f 119/4/5 118/4/5 117/4/5
f 120/4/5 118/4/5 119/4/5
f 121/2/5 120/2/5 119/2/5
f 122/2/5 121/2/5 119/2/5
f 123/2/5 121/2/5 122/2/5
f 124/1/6 125/1/6 126/1/6
f 126/1/6 125/1/6 127/1/6
f 127/1/6 125/1/6 128/1/6
f 127/2/6 128/2/6 129/2/6
f 127/2/6 129/2/6 130/2/6
f 127/2/6 130/2/6 131/2/6
f 131/2/6 130/2/6 132/2/6
f 132/2/6 130/2/6 133/2/6
f 134/3/6 135/3/6 136/3/6
f 136/3/6 135/3/6 137/3/6
f 136/1/6 137/1/6 138/1/6
f 138/1/6 137/1/6 139/1/6
f 136/1/6 138/1/6 140/1/6
f 138/2/6 139/2/6 141/2/6
f 140/1/6 138/1/6 141/1/6
f 140/2/6 141/2/6 142/2/6
f 141/2/6 139/2/6 142/2/6
f 142/2/6 139/2/6 143/2/6
f 140/2/6 142/2/6 144/2/6
f 142/4/6 143/4/6 144/4/6
f 143/2/6 139/2/6 145/2/6
f 144/4/6 143/4/6 145/4/6
f 140/2/6 144/2/6 146/2/6
f 144/2/6 145/2/6 146/2/6
f 146/2/6 145/2/6 147/2/6
f 140/2/6 146/2/6 148/2/6
f 146/5/6 147/5/6 149/5/6
f 148/2/6 146/2/6 149/2/6
f 147/2/6 145/2/6 150/2/6
f 149/5/6 147/5/6 150/5/6
f 145/2/6 139/2/6 151/2/6
f 150/2/6 145/2/6 151/2/6
